<svg width="1024" height="1024" viewBox="0 0 1024 1024" fill="none" xmlns="http://www.w3.org/2000/svg">
<g clip-path="url(#clip0_898_96)">
<rect width="1024" height="1024" fill="#242424"/>
<g filter="url(#filter0_f_898_96)">
<circle cx="511.5" cy="0.5" r="597.5" fill="white" fill-opacity="0.05"/>
</g>
<circle cx="512" cy="512" r="362" stroke="#D9D9D9" stroke-width="60" stroke-linecap="round" stroke-linejoin="round"/>
<path d="M512 150C569.127 150 625.444 163.52 676.345 189.456C727.245 215.391 771.286 253.005 804.864 299.222C838.443 345.439 860.606 398.947 869.543 455.371C878.48 511.795 873.936 569.533 856.282 623.864C838.629 678.195 808.368 727.577 767.973 767.973C727.578 808.368 678.196 838.629 623.864 856.282C569.533 873.936 511.795 878.48 455.371 869.543C398.947 860.607 345.439 838.443 299.222 804.864" stroke="#F58F00" stroke-width="60" stroke-linecap="round" stroke-linejoin="round"/>
<g filter="url(#filter1_d_898_96)">
<rect x="402.25" y="482.916" width="219.813" height="58.6168" fill="url(#paint0_linear_898_96)"/>
<path d="M244 491.709C244 486.853 247.937 482.916 252.793 482.916H273.308V541.533H252.793C247.937 541.533 244 537.596 244 532.74V491.709Z" fill="url(#paint1_linear_898_96)"/>
<path d="M751.005 482.916H771.521C776.377 482.916 780.313 486.853 780.313 491.709V532.74C780.313 537.596 776.377 541.533 771.521 541.533H751.005V482.916Z" fill="url(#paint2_linear_898_96)"/>
<rect x="339.252" y="384" width="60.0822" height="256.448" rx="8.79252" fill="url(#paint3_linear_898_96)"/>
<rect x="688.022" y="402.318" width="60.0822" height="219.813" rx="8.79252" fill="url(#paint4_linear_898_96)"/>
<rect x="625.009" y="384" width="60.0822" height="256.448" rx="8.79252" fill="url(#paint5_linear_898_96)"/>
<rect x="276.24" y="402.318" width="60.0822" height="219.813" rx="8.79252" fill="url(#paint6_linear_898_96)"/>
</g>
</g>
<defs>
<filter id="filter0_f_898_96" x="-786" y="-1297" width="2595" height="2595" filterUnits="userSpaceOnUse" color-interpolation-filters="sRGB">
<feFlood flood-opacity="0" result="BackgroundImageFix"/>
<feBlend mode="normal" in="SourceGraphic" in2="BackgroundImageFix" result="shape"/>
<feGaussianBlur stdDeviation="350" result="effect1_foregroundBlur_898_96"/>
</filter>
<filter id="filter1_d_898_96" x="241.069" y="384" width="542.175" height="262.31" filterUnits="userSpaceOnUse" color-interpolation-filters="sRGB">
<feFlood flood-opacity="0" result="BackgroundImageFix"/>
<feColorMatrix in="SourceAlpha" type="matrix" values="0 0 0 0 0 0 0 0 0 0 0 0 0 0 0 0 0 0 127 0" result="hardAlpha"/>
<feOffset dy="2.93084"/>
<feGaussianBlur stdDeviation="1.46542"/>
<feComposite in2="hardAlpha" operator="out"/>
<feColorMatrix type="matrix" values="0 0 0 0 0 0 0 0 0 0 0 0 0 0 0 0 0 0 0.25 0"/>
<feBlend mode="normal" in2="BackgroundImageFix" result="effect1_dropShadow_898_96"/>
<feBlend mode="normal" in="SourceGraphic" in2="effect1_dropShadow_898_96" result="shape"/>
</filter>
<linearGradient id="paint0_linear_898_96" x1="512.157" y1="482.916" x2="512.157" y2="541.533" gradientUnits="userSpaceOnUse">
<stop offset="0.75" stop-color="#D9D9D9"/>
<stop offset="1" stop-color="#A6A6A6"/>
</linearGradient>
<linearGradient id="paint1_linear_898_96" x1="258.654" y1="482.916" x2="258.654" y2="541.533" gradientUnits="userSpaceOnUse">
<stop offset="0.75" stop-color="#D9D9D9"/>
<stop offset="1" stop-color="#A6A6A6"/>
</linearGradient>
<linearGradient id="paint2_linear_898_96" x1="765.659" y1="482.916" x2="765.659" y2="541.533" gradientUnits="userSpaceOnUse">
<stop offset="0.75" stop-color="#D9D9D9"/>
<stop offset="1" stop-color="#A6A6A6"/>
</linearGradient>
<linearGradient id="paint3_linear_898_96" x1="369.293" y1="384" x2="369.293" y2="640.448" gradientUnits="userSpaceOnUse">
<stop offset="0.85" stop-color="#F58F00"/>
<stop offset="1" stop-color="#8F5300"/>
</linearGradient>
<linearGradient id="paint4_linear_898_96" x1="718.063" y1="402.318" x2="718.063" y2="622.131" gradientUnits="userSpaceOnUse">
<stop offset="0.85" stop-color="#F58F00"/>
<stop offset="1" stop-color="#8F5300"/>
</linearGradient>
<linearGradient id="paint5_linear_898_96" x1="655.05" y1="384" x2="655.05" y2="640.448" gradientUnits="userSpaceOnUse">
<stop offset="0.85" stop-color="#F58F00"/>
<stop offset="1" stop-color="#8F5300"/>
</linearGradient>
<linearGradient id="paint6_linear_898_96" x1="306.281" y1="402.318" x2="306.281" y2="622.131" gradientUnits="userSpaceOnUse">
<stop offset="0.85" stop-color="#F58F00"/>
<stop offset="1" stop-color="#8F5300"/>
</linearGradient>
<clipPath id="clip0_898_96">
<rect width="1024" height="1024" fill="white"/>
</clipPath>
</defs>
</svg>
